<?xml version="1.0" encoding="utf-8"?>
<!-- Generator: Adobe Illustrator 16.0.0, SVG Export Plug-In . SVG Version: 6.00 Build 0)  -->
<!DOCTYPE svg PUBLIC "-//W3C//DTD SVG 1.1//EN" "http://www.w3.org/Graphics/SVG/1.1/DTD/svg11.dtd">
<svg version="1.1" id="Capa_1" xmlns="http://www.w3.org/2000/svg" xmlns:xlink="http://www.w3.org/1999/xlink" x="0px" y="0px"
	 width="179px" height="181.414px" viewBox="0 0 179 181.414" enable-background="new 0 0 179 181.414" xml:space="preserve">
<g>
	<path fill="#00FFF0" d="M52.255,11.35l1.503-1.986l1.656-1.893c0.594-0.591,1.193-1.18,1.811-1.751
		c0.662-0.519,1.292-1.083,1.984-1.567c0.708-0.46,1.378-0.987,2.139-1.37l1.115-0.619l1.167-0.522
		c0.769-0.378,1.601-0.597,2.411-0.882c0.411-0.124,0.835-0.202,1.253-0.305c0.419-0.103,0.84-0.198,1.271-0.239
		c1.706-0.304,3.463-0.25,5.195-0.057c1.742,0.199,3.423,0.772,5.024,1.489l1.179,0.595l1.101,0.705
		c0.343,0.193,0.713,0.537,1.07,0.821l0.538,0.447c0.165,0.157,0.314,0.322,0.472,0.483c1.272,1.27,2.286,2.789,3.018,4.402
		c0.738,1.611,1.285,3.3,1.604,5.013c0.32,1.71,0.525,3.438,0.563,5.158c0.093,3.44-0.206,6.86-0.828,10.202
		c-0.626,3.344-1.513,6.623-2.624,9.835c-0.555,1.606-1.171,3.194-1.879,4.762c-0.728,1.577-1.442,3.097-2.649,4.689l-2.363-2.314
		c1.064-0.848,2.108-1.722,3.194-2.546c1.14-0.759,2.214-1.607,3.413-2.288c1.187-0.698,2.364-1.411,3.636-1.97
		c1.228-0.64,2.547-1.099,3.852-1.588c2.656-0.855,5.433-1.438,8.267-1.537c2.833-0.048,5.679,0.361,8.377,1.223
		c2.7,0.859,5.245,2.166,7.521,3.835l0.431,0.308l0.427,0.345l0.766,0.627l0.766,0.627l0.775,0.709
		c1.06,0.939,2.001,1.942,2.934,2.961c3.669,4.133,6.354,9.286,7.292,14.816c0.994,5.529,0.05,11.258-2.116,16.3
		c-2.175,5.064-5.64,9.507-9.921,12.883c-2.139,1.678-4.492,3.14-7,4.145c-0.612,0.256-1.198,0.54-1.831,0.774l-1.944,0.65
		l-0.97,0.317l-0.989,0.226l-1.973,0.447l-2.004,0.255l-1,0.122l-1.005,0.037l-2.006,0.068l-1.999-0.081
		c-2.662-0.119-5.284-0.536-7.895-0.938l0.025-0.198c2.62,0.301,5.245,0.593,7.88,0.628l1.975,0.021l1.97-0.126l0.985-0.065
		l0.975-0.149l1.949-0.307c2.556-0.624,5.077-1.376,7.438-2.579c2.41-1.063,4.64-2.495,6.676-4.155
		c4.068-3.329,7.317-7.667,9.301-12.536c1.994-4.853,2.721-10.263,1.784-15.439c-0.917-5.18-3.457-9.997-6.964-13.898
		c-1.756-1.951-3.731-3.702-5.84-5.27c-2.122-1.536-4.491-2.73-6.99-3.508c-2.499-0.779-5.125-1.14-7.744-1.08
		c-2.621,0.09-5.21,0.604-7.71,1.392c-1.23,0.455-2.476,0.874-3.646,1.477c-1.208,0.519-2.336,1.195-3.475,1.853
		c-1.148,0.639-2.189,1.454-3.289,2.172c-1.052,0.788-2.067,1.628-3.102,2.439l-1.117,0.875l0.865-1.123
		c0.992-1.289,1.74-2.784,2.433-4.278c0.689-1.502,1.301-3.042,1.851-4.602c1.104-3.12,1.992-6.319,2.623-9.568
		c0.641-3.245,1.008-6.552,0.974-9.856c-0.006-1.653-0.174-3.301-0.446-4.927c-0.272-1.627-0.759-3.215-1.416-4.721
		c-0.651-1.51-1.557-2.914-2.699-4.094c-1.13-1.171-2.47-2.185-3.966-2.878c-1.485-0.7-3.054-1.256-4.686-1.498
		c-1.625-0.228-3.289-0.333-4.923-0.089c-0.413,0.026-0.817,0.106-1.22,0.192c-0.402,0.087-0.812,0.149-1.209,0.256
		c-0.785,0.252-1.593,0.437-2.345,0.781l-1.145,0.471l-1.1,0.569c-0.75,0.349-1.417,0.844-2.123,1.271
		c-0.691,0.452-1.325,0.987-1.99,1.476l-1.845,1.655l-1.705,1.797l-1.582,1.921L52.255,11.35z"/>
</g>
<g>
	<g>
		<path fill="#00FFF0" d="M58.834,118.004c0,0,0.181,0.141,0.451,0.352c0.208,0.166,0.327,0.273,0.319,0.29
			c-0.012,0.014-0.15-0.063-0.375-0.208c-0.288-0.19-0.479-0.316-0.479-0.316s-0.181-0.141-0.453-0.353
			c-0.209-0.167-0.326-0.273-0.317-0.289c0.013-0.013,0.153,0.065,0.377,0.209C58.644,117.878,58.834,118.004,58.834,118.004z"/>
	</g>
	<g>
		<path fill="#00FFF0" d="M93,52.219c-1.237,3.166-2.583,6.282-3.873,9.423c-1.327,3.124-2.663,6.244-4.036,9.347
			c-1.354,3.111-2.752,6.202-4.146,9.296c-1.382,3.098-2.828,6.167-4.239,9.252l-4.324,9.213l-4.411,9.172
			c-1.505,3.041-2.987,6.093-4.526,9.119c-1.509,3.039-3.104,6.038-4.659,9.057l0.008-0.02c-0.416,1.102-1.086,2.191-1.52,3.287
			c0.315-1.136,0.726-2.278,0.726-3.408v-0.003l0.225-0.017c1.312-3.131,2.691-6.282,4.047-9.393
			c1.327-3.125,2.765-6.222,4.125-9.331l4.212-9.277l4.287-9.236c1.454-3.065,2.881-6.146,4.364-9.197
			c1.473-3.056,2.943-6.115,4.455-9.153c1.492-3.047,3.023-6.078,4.562-9.103C89.85,58.237,91.372,55.203,93,52.219z"/>
	</g>
	<g>
		<path fill="#00FFF0" d="M57.751,128.081c0,0-0.101,1.11-0.474,3.005c-0.084,0.473-0.175,0.997-0.21,1.56
			c-0.037,0.559-0.033,1.172,0.168,1.731c0.195,0.561,0.612,1.025,1.195,1.348c0.144,0.071,0.29,0.143,0.438,0.216
			c0.178,0.065,0.37,0.145,0.544,0.201c0.313,0.079,0.665,0.167,0.994,0.141c1.332,0.012,2.254-1.604,3.129-3.197
			c0.821-1.605,1.524-3.534,2.53-5.398c1.001-1.858,2.163-3.841,4.091-5.333c0.951-0.728,2.104-1.345,3.373-1.528
			c0.625-0.166,1.261-0.092,1.895-0.105c0.475,0.063,0.535,0.054,0.962,0.174c0.191,0.061,0.382,0.127,0.569,0.198l0.49,0.277
			c0.629,0.416,1.116,1.026,1.407,1.657c0.273,0.629,0.443,1.271,0.507,1.885c0.154,1.236,0.049,2.4-0.104,3.527
			c-0.321,2.252-0.977,4.341-1.656,6.328c-1.372,3.974-3.141,7.46-4.572,10.432c-0.723,1.491-1.366,2.862-2.06,4.033
			c-0.661,1.179-1.237,2.206-1.711,3.052c-0.954,1.686-1.521,2.63-1.521,2.63s0.413-1.033,1.175-2.808
			c0.383-0.884,0.849-1.958,1.383-3.189c0.557-1.214,1.061-2.655,1.687-4.188c0.613-1.534,1.278-3.196,1.981-4.954
			c0.686-1.751,1.35-3.619,1.967-5.561c0.612-1.941,1.125-3.986,1.415-6.04c0.131-1.021,0.202-2.064,0.068-3.012
			c-0.052-0.481-0.189-0.91-0.351-1.291c-0.179-0.369-0.42-0.633-0.707-0.831l-0.227-0.137c-0.073-0.021-0.143-0.046-0.211-0.078
			c-0.093-0.059-0.59-0.125-0.658-0.133c-0.465,0.021-0.944-0.063-1.392,0.066c-0.92,0.113-1.771,0.558-2.541,1.129
			c-1.544,1.168-2.729,2.895-3.715,4.637c-1.004,1.757-1.782,3.561-2.776,5.288c-0.519,0.846-1.01,1.631-1.702,2.365
			c-0.346,0.356-0.74,0.697-1.22,0.926c-0.475,0.234-1.011,0.337-1.507,0.321c-0.504-0.008-0.943-0.149-1.383-0.306
			c-0.197-0.081-0.362-0.165-0.542-0.246c-0.229-0.126-0.377-0.228-0.563-0.342c-0.698-0.474-1.225-1.204-1.391-1.946
			c-0.178-0.74-0.1-1.417-0.003-2.005c0.1-0.594,0.247-1.115,0.379-1.583c0.28-0.925,0.5-1.652,0.65-2.148
			C57.681,128.348,57.751,128.081,57.751,128.081z"/>
	</g>
</g>
<g>
	<path fill="#00FFF0" d="M0,155.414c0,0,2.797-0.072,7.691-0.199c4.895-0.084,11.886-0.285,20.277-0.381
		c8.391-0.088,18.18-0.28,28.668-0.326c10.488-0.05,21.676-0.103,32.863-0.156c11.188,0.037,22.375,0.074,32.863,0.108
		c10.488,0.026,20.277,0.208,28.668,0.285c8.391,0.083,15.383,0.276,20.278,0.354c4.895,0.121,7.691,0.189,7.691,0.189
		s-2.797,0.073-7.691,0.2c-4.895,0.084-11.886,0.288-20.277,0.382c-8.391,0.088-18.18,0.284-28.668,0.325
		c-10.488,0.049-21.676,0.102-32.863,0.155c-11.188-0.038-22.375-0.075-32.863-0.11c-10.488-0.031-20.277-0.208-28.668-0.285
		c-8.391-0.085-15.383-0.275-20.278-0.353C2.797,155.482,0,155.414,0,155.414z"/>
</g>
<line fill="none" stroke="#00FFF0" stroke-miterlimit="10" x1="0" y1="180.914" x2="179" y2="180.914"/>
<g>
	<path fill="none" stroke="#00FFFF" stroke-miterlimit="10" d="M17.891,173.825l1.342-1.253h0.171l0.387,0.01
		c0.708,0,1.225-0.221,1.549-0.664c0.324-0.443,0.63-1.338,0.918-2.686l1.531-7.265c-1.23,0-2.229,0.312-2.994,0.934
		c-0.765,0.623-1.148,1.437-1.148,2.44l0.009,0.186l-1.756,0.795c0.168-1.757,0.892-3.035,2.17-3.834
		c1.278-0.799,3.245-1.199,5.898-1.199c1.909,0,3.27,0.193,4.084,0.58c0.813,0.387,1.22,1.032,1.22,1.935
		c0,0.723-0.279,1.459-0.837,2.21c-0.558,0.751-1.261,1.33-2.107,1.736c-0.979,0.463-2.095,0.694-3.35,0.694h-0.243l0.342-0.517
		h0.162c1.153,0,2.119-0.356,2.9-1.07c0.78-0.713,1.17-1.599,1.17-2.658c0-1.596-1.201-2.395-3.602-2.395l-1.45,6.861
		c-0.36,1.723-1.354,3.072-2.98,4.049l3.467,0.066l-1.243,1.253L17.891,173.825z"/>
	<path fill="none" stroke="#00FFFF" stroke-miterlimit="10" d="M31.425,172.314l1.765-1.199l1.369,1.647l-1.81,1.275L31.425,172.314
		z"/>
	<path fill="none" stroke="#00FFFF" stroke-miterlimit="10" d="M36.054,173.046l1.288-1.245c0.606,0.938,1.45,1.406,2.53,1.406
		c0.708,0,1.335-0.282,1.882-0.847c0.546-0.564,0.918-1.313,1.117-2.244l1.702-8.046c-0.306-0.045-0.519-0.068-0.639-0.068
		c-0.991,0-1.816,0.332-2.477,0.995c-0.66,0.664-0.99,1.489-0.99,2.478l-1.747,0.804c0.126-1.575,0.795-2.8,2.008-3.676
		c1.212-0.875,2.842-1.313,4.89-1.313h0.729c1.111,2.908,1.921,5.897,2.432,8.969l5.907-8.969l1.927-0.212l-0.684,2.719
		l-1.468,6.919c-0.126,0.616-0.189,1.107-0.189,1.474c0,0.497,0.321,0.746,0.964,0.746c0.318,0,0.744-0.031,1.278-0.093
		l-0.117,0.542l-4.449,0.83l2.333-11.027l-6.16,9.283l-0.927,0.135v-0.246c0-2.208-0.573-4.949-1.72-8.224l-0.739,3.456
		c-0.9,4.263-2.863,6.395-5.889,6.395C37.789,173.986,36.858,173.673,36.054,173.046z"/>
	<path fill="none" stroke="#00FFFF" stroke-miterlimit="10" d="M58.593,173.825l1.333-1.261h0.153c0.912,0,1.541-0.178,1.886-0.533
		s0.644-1.137,0.896-2.344l1.639-7.735c-1.237,0-2.236,0.312-2.999,0.936c-0.763,0.624-1.144,1.438-1.144,2.443v0.186l-1.747,0.796
		c0.15-1.711,0.864-2.976,2.143-3.794s3.172-1.228,5.682-1.228h5.295l-0.802,2.397h-0.567c0.048-0.22,0.072-0.418,0.072-0.593
		c0-0.446-0.272-0.753-0.815-0.923c-0.543-0.169-1.532-0.254-2.967-0.254h-0.279l-1.045,5.014h4.016l-0.918,0.872
		c-1.363-0.164-2.29-0.246-2.782-0.246h-0.45l-0.189,0.914c-0.21,1.026-0.53,1.839-0.959,2.439s-1.118,1.197-2.066,1.789
		l4.322,0.161l0.945,0.025c0.979,0,1.894-0.313,2.747-0.94l-0.144,0.678c-1.063,1.011-2.062,1.516-2.999,1.516l-0.414-0.009
		L58.593,173.825z"/>
	<path fill="none" stroke="#00FFFF" stroke-miterlimit="10" d="M70.983,173.029l1.288-1.237c0.612,0.938,1.453,1.406,2.521,1.406
		c0.714,0,1.345-0.281,1.891-0.842c0.546-0.562,0.918-1.312,1.117-2.249l1.702-8.037c-0.306-0.045-0.522-0.068-0.648-0.068
		c-0.985,0-1.807,0.332-2.468,0.995c-0.66,0.664-0.99,1.489-0.99,2.478l-1.747,0.804c0.12-1.496,0.771-2.702,1.954-3.616
		s2.68-1.372,4.494-1.372h0.864c0.618,1.491,1.432,3.08,2.44,4.768l1.144,1.914c0.798,1.316,1.384,2.38,1.756,3.193l1.036-4.896
		c0.354-1.688,0.973-2.994,1.855-3.917c0.882-0.923,1.948-1.385,3.197-1.385c0.444,0,0.879,0.079,1.306,0.237l-0.648,1.144
		c-0.534-0.395-1.048-0.593-1.54-0.593c-1.296,0-2.167,1.062-2.611,3.185l-1.351,6.377l-0.423,2.507l-1.152,0.373
		c-0.216-0.638-0.847-1.829-1.891-3.574l-2.206-3.675c-0.588-0.982-1.075-1.86-1.459-2.634l-0.685,3.261
		c-0.438,2.061-1.169,3.645-2.192,4.751s-2.271,1.66-3.742,1.66C72.76,173.986,71.824,173.667,70.983,173.029z"/>
	<path fill="none" stroke="#00FFFF" stroke-miterlimit="10" d="M91.154,173.825l1.324-1.253l0.135-0.017
		c0.036-0.005,0.114-0.002,0.234,0.009c0.06,0.005,0.126,0.008,0.198,0.008c0.654,0,1.148-0.188,1.481-0.563
		c0.333-0.375,0.602-1.048,0.806-2.02l1.702-8.038c-1.237,0-2.236,0.312-2.999,0.936c-0.763,0.624-1.144,1.438-1.144,2.443v0.186
		l-1.747,0.796c0.312-3.348,2.875-5.022,7.69-5.022h2.603c2.005,0,3.452,0.352,4.34,1.054c0.888,0.703,1.333,1.851,1.333,3.443
		c0,2.581-0.947,4.601-2.841,6.06s-4.51,2.189-7.848,2.189c-0.138,0-0.417-0.009-0.837-0.025L91.154,173.825z M94.405,172.758
		l1.603,0.254c0.871,0.141,1.756,0.211,2.657,0.211c1.236,0,2.2-0.159,2.891-0.479c0.69-0.319,1.33-0.902,1.918-1.749
		c1.039-1.491,1.558-3.148,1.558-4.972c0-2.812-1.651-4.218-4.953-4.218h-1.125l-1.378,6.496c-0.246,1.18-0.585,2.072-1.018,2.676
		C96.125,171.583,95.408,172.177,94.405,172.758z"/>
	<path fill="none" stroke="#00FFFF" stroke-miterlimit="10" d="M114.072,174.139c-1.477,0-2.646-0.432-3.507-1.296
		s-1.292-2.036-1.292-3.515c0-2.219,0.812-4.167,2.436-5.844c1.624-1.677,3.51-2.515,5.66-2.515c1.464,0,2.625,0.425,3.48,1.274
		c0.855,0.85,1.283,2.003,1.283,3.46c0,2.315-0.791,4.3-2.373,5.954S116.281,174.139,114.072,174.139z M114.423,173.563
		c1.561,0,2.899-0.776,4.015-2.329c1.116-1.553,1.675-3.416,1.677-5.59c-0.002-2.755-1.02-4.133-3.053-4.133
		c-1.561,0-2.902,0.768-4.024,2.304s-1.684,3.376-1.685,5.522C111.354,172.154,112.377,173.563,114.423,173.563z"/>
	<path fill="none" stroke="#00FFFF" stroke-miterlimit="10" d="M122.383,174.037l0.234-1.114l10.004-9.937
		c-0.66,0.123-1.256,0.185-1.79,0.185c-0.54,0-1.185-0.084-1.934-0.251l-0.989-0.218c-0.204-0.05-0.381-0.092-0.531-0.125
		c-0.492-0.112-0.845-0.168-1.062-0.168c-0.474,0-1.022,0.17-1.646,0.511l0.153-0.689c0.918-0.768,1.846-1.152,2.782-1.152
		c0.234,0,0.612,0.054,1.135,0.161l1.044,0.22c0.792,0.164,1.588,0.246,2.386,0.246c0.919,0,1.729-0.138,2.432-0.415l-0.252,1.156
		l-9.815,9.854c0.744-0.169,1.408-0.254,1.99-0.254c0.366,0,0.879,0.054,1.54,0.161l1.612,0.263
		c0.114,0.017,0.393,0.068,0.837,0.152c0.414,0.073,0.735,0.11,0.963,0.11c0.913,0,1.732-0.449,2.458-1.347l-0.18,0.856
		c-1.015,1.265-2.017,1.897-3.007,1.897c-0.462,0-1.15-0.093-2.063-0.28l-1.197-0.246c-0.661-0.135-1.249-0.203-1.765-0.203
		C125.015,173.41,123.901,173.619,122.383,174.037z"/>
	<path fill="none" stroke="#00FFFF" stroke-miterlimit="10" d="M134.783,173.114l1.216-1.152c0.57,0.824,1.317,1.236,2.242,1.236
		c0.882,0,1.712-0.346,2.49-1.037c0.777-0.692,1.707-1.918,2.787-3.68l3.881-6.309c-0.654-0.073-1.215-0.11-1.684-0.11
		c-1.255,0-2.223,0.295-2.904,0.886s-1.022,1.434-1.022,2.531l-1.765,0.822c0.114-1.063,0.429-1.941,0.946-2.637
		c0.57-0.774,1.243-1.325,2.017-1.653c0.774-0.328,1.897-0.54,3.368-0.636c0.294-0.017,0.738-0.048,1.333-0.093l1.837-0.313
		l0.117,2.822l0.522,5.856c0.12,1.362,0.29,2.259,0.509,2.691s0.614,0.648,1.184,0.648c0.102,0,0.453-0.017,1.054-0.051
		l-0.117,0.559l-4.133,0.644l-0.369-4.175h-4.908c-0.949,1.547-1.846,2.629-2.692,3.248c-0.846,0.619-1.855,0.928-3.025,0.928
		C136.554,174.139,135.593,173.797,134.783,173.114z M143.77,169.336h4.458l-0.576-6.367L143.77,169.336z"/>
	<path fill="none" stroke="#00FFFF" stroke-miterlimit="10" d="M152.981,173.351l1.252-1.203c1.104,0.841,2.248,1.262,3.431,1.262
		c0.822,0,1.495-0.219,2.017-0.656s0.783-1.001,0.783-1.69c0-0.677-0.492-1.425-1.477-2.244l-1.27-1.059
		c-0.943-0.779-1.526-1.327-1.751-1.643c-0.225-0.316-0.338-0.74-0.338-1.271c0-1.056,0.474-1.966,1.423-2.731
		c0.948-0.765,2.08-1.147,3.395-1.147c0.834,0,1.813,0.234,2.936,0.703l-0.45,2.126h-0.567c0.012-0.175,0.018-0.296,0.018-0.364
		c0-0.536-0.229-0.968-0.685-1.296c-0.456-0.327-1.06-0.491-1.81-0.491c-0.774,0-1.426,0.216-1.954,0.648
		c-0.528,0.432-0.792,0.967-0.792,1.605c0,0.429,0.134,0.822,0.401,1.177c0.267,0.356,0.824,0.873,1.67,1.55l1.063,0.864
		c1.183,0.954,1.774,1.846,1.774,2.676c0,1.09-0.555,2.024-1.666,2.803c-1.11,0.779-2.434,1.169-3.971,1.169
		C155.236,174.139,154.092,173.876,152.981,173.351z"/>
</g>
</svg>
