<?xml version="1.0" encoding="utf-8"?>
<!-- Generator: Adobe Illustrator 16.0.0, SVG Export Plug-In . SVG Version: 6.00 Build 0)  -->
<!DOCTYPE svg PUBLIC "-//W3C//DTD SVG 1.1//EN" "http://www.w3.org/Graphics/SVG/1.1/DTD/svg11.dtd">
<svg version="1.1" id="Capa_1" xmlns="http://www.w3.org/2000/svg" xmlns:xlink="http://www.w3.org/1999/xlink" x="0px" y="0px"
	 width="190.5px" height="205.5px" viewBox="0 0 190.5 205.5" enable-background="new 0 0 190.5 205.5" xml:space="preserve">
<g>
	<path fill="#00FFF0" d="M58.255,21.937l1.503-1.986l1.656-1.893c0.594-0.591,1.193-1.18,1.811-1.751
		c0.662-0.519,1.292-1.083,1.984-1.567c0.708-0.46,1.378-0.987,2.139-1.37l1.115-0.619l1.167-0.522
		c0.769-0.378,1.601-0.597,2.411-0.882c0.411-0.124,0.835-0.202,1.253-0.305c0.419-0.103,0.84-0.198,1.271-0.239
		c1.706-0.304,3.463-0.25,5.195-0.057c1.742,0.199,3.423,0.772,5.024,1.489l1.179,0.595l1.101,0.705
		c0.343,0.193,0.713,0.537,1.07,0.821l0.538,0.447c0.165,0.157,0.314,0.322,0.472,0.483c1.272,1.27,2.286,2.789,3.018,4.402
		c0.738,1.611,1.285,3.3,1.604,5.013c0.32,1.71,0.525,3.438,0.563,5.158c0.093,3.44-0.206,6.86-0.828,10.202
		c-0.626,3.344-1.513,6.623-2.624,9.835c-0.555,1.606-1.171,3.194-1.879,4.762c-0.728,1.577-1.442,3.097-2.649,4.689l-2.363-2.314
		c1.064-0.848,2.108-1.722,3.194-2.546c1.14-0.759,2.214-1.607,3.413-2.288c1.187-0.698,2.364-1.411,3.636-1.97
		c1.228-0.64,2.547-1.099,3.852-1.588c2.656-0.855,5.433-1.438,8.267-1.537c2.833-0.048,5.679,0.361,8.377,1.223
		c2.7,0.859,5.245,2.166,7.521,3.835l0.431,0.308l0.427,0.345l0.766,0.627l0.766,0.627l0.775,0.709
		c1.06,0.939,2.001,1.942,2.934,2.961c3.669,4.133,6.354,9.286,7.292,14.816c0.994,5.529,0.05,11.258-2.116,16.3
		c-2.175,5.064-5.64,9.507-9.921,12.883c-2.139,1.678-4.492,3.14-7,4.145c-0.612,0.256-1.198,0.54-1.831,0.774l-1.944,0.65
		l-0.97,0.317l-0.989,0.226l-1.973,0.447l-2.004,0.255l-1,0.122l-1.005,0.037l-2.006,0.068l-1.999-0.081
		c-2.662-0.119-5.284-0.536-7.895-0.938l0.025-0.198c2.62,0.301,5.245,0.593,7.88,0.628l1.975,0.021l1.97-0.126l0.985-0.065
		l0.975-0.149l1.949-0.307c2.556-0.624,5.077-1.376,7.438-2.579c2.41-1.063,4.64-2.495,6.676-4.155
		c4.068-3.329,7.317-7.667,9.301-12.536c1.994-4.853,2.721-10.263,1.784-15.439c-0.917-5.18-3.457-9.997-6.964-13.898
		c-1.756-1.951-3.731-3.702-5.84-5.27c-2.122-1.536-4.491-2.73-6.99-3.508c-2.499-0.779-5.125-1.14-7.744-1.08
		c-2.621,0.09-5.21,0.604-7.71,1.392c-1.23,0.455-2.476,0.874-3.646,1.477c-1.208,0.519-2.336,1.195-3.475,1.853
		c-1.148,0.639-2.189,1.454-3.289,2.172c-1.052,0.788-2.067,1.628-3.102,2.439l-1.117,0.875l0.865-1.123
		c0.992-1.289,1.74-2.784,2.433-4.278c0.689-1.502,1.301-3.042,1.851-4.602c1.104-3.12,1.992-6.319,2.623-9.568
		c0.641-3.245,1.008-6.552,0.974-9.856c-0.006-1.653-0.174-3.301-0.446-4.927c-0.272-1.627-0.759-3.215-1.416-4.721
		c-0.651-1.51-1.557-2.914-2.699-4.094c-1.13-1.171-2.47-2.185-3.966-2.878c-1.485-0.7-3.054-1.256-4.686-1.498
		c-1.625-0.228-3.289-0.333-4.923-0.089c-0.413,0.026-0.817,0.106-1.22,0.192c-0.402,0.087-0.812,0.149-1.209,0.256
		c-0.785,0.252-1.593,0.437-2.345,0.781l-1.145,0.471l-1.1,0.569c-0.75,0.349-1.417,0.844-2.123,1.271
		c-0.691,0.452-1.325,0.987-1.99,1.476l-1.845,1.655l-1.705,1.797l-1.582,1.921L58.255,21.937z"/>
</g>
<g>
	<g>
		<path fill="#00FFF0" d="M99,62.805c-1.237,3.166-2.583,6.282-3.873,9.423c-1.327,3.124-2.663,6.244-4.036,9.347
			c-1.354,3.111-2.752,6.202-4.146,9.296c-1.382,3.098-2.828,6.167-4.239,9.252l-4.324,9.213l-4.411,9.172
			c-1.505,3.041-2.987,6.093-4.526,9.119c-1.509,3.039-3.104,6.038-4.659,9.057l0.008-0.02c-0.416,1.102-1.086,2.191-1.52,3.287
			c0.315-1.136,0.726-2.278,0.726-3.408v-0.003l0.225-0.017c1.312-3.131,2.691-6.282,4.047-9.393
			c1.327-3.125,2.765-6.222,4.125-9.331l4.212-9.277l4.287-9.236c1.454-3.065,2.881-6.146,4.364-9.197
			c1.473-3.056,2.943-6.115,4.455-9.153c1.492-3.047,3.023-6.078,4.562-9.103C95.85,68.823,97.372,65.789,99,62.805z"/>
	</g>
	<g>
		<path fill="#00FFF0" d="M63.751,138.667c0,0-0.101,1.11-0.474,3.005c-0.084,0.473-0.175,0.997-0.21,1.56
			c-0.037,0.559-0.033,1.172,0.168,1.731c0.195,0.561,0.612,1.025,1.195,1.348c0.144,0.071,0.29,0.143,0.438,0.216
			c0.178,0.065,0.37,0.145,0.544,0.201c0.313,0.079,0.665,0.167,0.994,0.141c1.332,0.012,2.254-1.604,3.129-3.197
			c0.821-1.605,1.524-3.534,2.53-5.398c1.001-1.858,2.163-3.841,4.091-5.333c0.951-0.728,2.104-1.345,3.373-1.528
			c0.625-0.166,1.261-0.092,1.895-0.105c0.475,0.063,0.535,0.054,0.962,0.174c0.191,0.061,0.382,0.127,0.569,0.198l0.49,0.277
			c0.629,0.416,1.116,1.026,1.407,1.657c0.273,0.629,0.443,1.271,0.507,1.885c0.154,1.236,0.049,2.4-0.104,3.527
			c-0.321,2.252-0.977,4.341-1.656,6.328c-1.372,3.974-3.141,7.46-4.572,10.432c-0.723,1.491-1.366,2.862-2.06,4.033
			c-0.661,1.179-1.237,2.206-1.711,3.052c-0.954,1.686-1.521,2.63-1.521,2.63s0.413-1.033,1.175-2.808
			c0.383-0.884,0.849-1.958,1.383-3.189c0.557-1.214,1.061-2.655,1.687-4.188c0.613-1.534,1.278-3.196,1.981-4.954
			c0.686-1.751,1.35-3.619,1.967-5.561c0.612-1.941,1.125-3.986,1.415-6.04c0.131-1.021,0.202-2.064,0.068-3.012
			c-0.052-0.481-0.189-0.91-0.351-1.291c-0.179-0.369-0.42-0.633-0.707-0.831l-0.227-0.137c-0.073-0.021-0.143-0.046-0.211-0.078
			c-0.093-0.059-0.59-0.125-0.658-0.133c-0.465,0.021-0.944-0.063-1.392,0.066c-0.92,0.113-1.771,0.558-2.541,1.129
			c-1.544,1.168-2.729,2.895-3.715,4.637c-1.004,1.757-1.782,3.561-2.776,5.288c-0.519,0.846-1.01,1.631-1.702,2.365
			c-0.346,0.356-0.74,0.697-1.22,0.926c-0.475,0.234-1.011,0.337-1.507,0.321c-0.504-0.008-0.943-0.149-1.383-0.306
			c-0.197-0.081-0.362-0.165-0.542-0.246c-0.229-0.126-0.377-0.228-0.563-0.342c-0.698-0.474-1.225-1.204-1.391-1.946
			c-0.178-0.74-0.1-1.417-0.003-2.005c0.1-0.594,0.247-1.115,0.379-1.583c0.28-0.925,0.5-1.652,0.65-2.148
			C63.681,138.935,63.751,138.667,63.751,138.667z"/>
	</g>
</g>
<g>
	<path fill="#00FFF0" d="M6,166c0,0,2.797-0.072,7.691-0.199c4.895-0.084,11.886-0.285,20.277-0.381
		c8.391-0.088,18.18-0.28,28.668-0.326c10.488-0.05,21.676-0.103,32.863-0.156c11.188,0.037,22.375,0.074,32.863,0.108
		c10.488,0.026,20.277,0.208,28.668,0.285c8.391,0.083,15.383,0.276,20.278,0.354c4.895,0.121,7.691,0.189,7.691,0.189
		s-2.797,0.073-7.691,0.2c-4.895,0.084-11.886,0.288-20.277,0.382c-8.391,0.088-18.18,0.284-28.668,0.325
		c-10.488,0.049-21.676,0.102-32.863,0.155c-11.188-0.038-22.375-0.075-32.863-0.11c-10.488-0.031-20.277-0.208-28.668-0.285
		c-8.391-0.085-15.383-0.275-20.278-0.353C8.797,166.068,6,166,6,166z"/>
</g>
<line fill="none" stroke="#00FFF0" stroke-miterlimit="10" x1="6" y1="191.5" x2="185" y2="191.5"/>
<text transform="matrix(1.1329 0 0 1 20.333 185.0791)" fill="#00FFF0" stroke="#00FFF0" stroke-miterlimit="10" font-family="'LucidaCalligraphy-Italic'" font-size="17.9028">P.MENDOZAS</text>
</svg>
